# xmcd CD database file generated by Grip 3.2.0
# 
# Track frame offsets:
#       225
#       9131
#       24497
#       37621
#       48557
#       61533
#       79137
#       88366
#       109048
#       124406
#       152676
#       166586
#       178013
#       196418
#       208245
#       221161
#       232677
# 
# Disc length: 3289 seconds
# 
# Revision: 2
# Processed by: cddbd v1.5.1PL0 Copyright (c) Steve Scherf et al.
# Submitted via: Grip 3.2.0
# 
DISCID=d40cd611
DTITLE=Greenhorns - 2000
DYEAR=1999
DGENRE=Country
TTITLE0=Plav vocuď, ty grázle
TTITLE1=Billy The Kid
TTITLE2=Havárie staré sedmadevadesátky
TTITLE3=Nancy Whisky
TTITLE4=Frankie a Johnny
TTITLE5=Belle Star
TTITLE6=Tam za mořem piva
TTITLE7=Whisky plnej džbán
TTITLE8=Co dát své lásce
TTITLE9=Velká jízda na říčním kolotoči
TTITLE10=Já opouštím Cheyenne
TTITLE11=Erie Canal
TTITLE12=Štěrk a sůl s pepřem
TTITLE13=Holka z Danvillu
TTITLE14=Whoo - Pee Ti Yi Yo
TTITLE15=Casey Jones
TTITLE16=Pár těch fotek starých
EXTD=\nYEAR: 2001  ID3G:   1
EXTT0=
EXTT1=
EXTT2=
EXTT3=
EXTT4=
EXTT5=
EXTT6=
EXTT7=
EXTT8=
EXTT9=
EXTT10=
EXTT11=
EXTT12=
EXTT13=
EXTT14=
EXTT15=
EXTT16=
PLAYORDER=
